<svg width="3876" height="607" viewBox="0 0 3876 607" fill="none" xmlns="http://www.w3.org/2000/svg">
<path d="M96.8818 89.6406H186.947C190.63 89.6406 193.62 92.6306 193.62 96.3138C193.62 142.056 156.484 179.192 110.742 179.192H20.6766C16.9934 179.192 14.0034 176.202 14.0034 172.519C14.0034 126.777 51.1394 89.6406 96.8818 89.6406Z" fill="white"/>
<path d="M58.7791 0.195312H188.28C191.227 0.195312 193.62 2.5886 193.62 5.53521V10.8751C193.62 54.4076 158.277 89.7503 114.745 89.7503H58.7758C34.063 89.7503 14 69.6873 14 44.9745C14 20.2616 34.063 0.198645 58.7758 0.198645L58.7791 0.195312Z" fill="white"/>
<path d="M395.237 5.7676V173.628C395.237 176.794 392.847 179.364 389.897 179.364H220.96C218.01 179.364 215.62 176.798 215.62 173.628V5.7676C215.62 0.0943736 222.467 -2.13558 225.4 2.58433L300.988 141.135C303.102 144.535 307.755 144.535 309.872 141.135L385.46 2.58433C388.394 -2.13225 395.24 0.0943736 395.24 5.7676H395.237Z" fill="white"/>
<path d="M524.028 0H586.327C592.22 0 597.006 4.78658 597.006 10.6798V72.5986C597.006 131.538 549.157 179.387 490.218 179.387H427.92C422.026 179.387 417.24 174.6 417.24 168.707V106.788C417.24 47.8491 465.089 0 524.028 0Z" fill="white"/>
<path d="M159.029 605.181C127.378 605.181 99.6523 598.043 75.8243 583.752C52.0106 569.461 33.4221 549.188 20.0447 522.904C6.6816 496.635 0 465.44 0 429.334C0 393.228 6.86707 360.62 20.6299 334.265C34.3785 307.91 53.0812 287.708 76.7521 273.645C100.409 259.597 127.221 252.559 157.188 252.559C176.09 252.559 193.708 255.328 210.083 260.853C226.444 266.379 241.035 274.259 253.87 284.482C266.691 294.704 277.213 306.796 285.436 320.773C293.66 334.75 299.071 350.126 301.683 366.873H238.765C235.996 357.65 232.198 349.441 227.358 342.217C222.518 334.993 216.679 328.768 209.84 323.543C203.002 318.318 195.25 314.363 186.569 311.679C177.889 308.995 168.324 307.639 157.873 307.639C139.442 307.639 122.966 312.321 108.432 321.701C93.9128 331.067 82.5056 344.744 74.2108 362.718C65.916 380.693 61.7615 402.736 61.7615 428.863C61.7615 454.989 65.916 476.605 74.2108 494.665C82.5056 512.725 93.9557 526.473 108.547 535.91C123.138 545.362 140.041 550.087 159.244 550.087C176.761 550.087 191.923 546.704 204.758 539.951C217.593 533.184 227.501 523.59 234.497 511.14C241.478 498.691 244.976 484.028 244.976 467.125L259.038 469.423H165.697V421.025H304.667V462.285C304.667 491.638 298.4 517.022 285.879 538.452C273.358 559.881 256.155 576.357 234.254 587.878C212.368 599.399 187.283 605.167 159.015 605.167L159.029 605.181Z" fill="white"/>
<path d="M447.521 605.864C422.479 605.864 400.736 600.296 382.304 589.16C363.873 578.025 349.61 562.506 339.56 542.604C329.494 522.702 324.455 499.545 324.455 473.119C324.455 446.692 329.48 422.993 339.56 402.948C349.61 382.889 363.873 367.342 382.304 356.277C400.736 345.213 422.479 339.688 447.521 339.688C472.562 339.688 494.534 345.213 512.98 356.277C531.411 367.342 545.659 382.889 555.739 402.948C565.79 422.993 570.83 446.392 570.83 473.119C570.83 499.845 565.79 522.716 555.739 542.604C545.674 562.506 531.426 578.025 512.98 589.16C494.549 600.296 472.719 605.864 447.521 605.864ZM447.521 557.238C461.498 557.238 473.133 553.468 482.442 545.945C491.736 538.421 498.646 528.27 503.186 515.521C507.712 502.771 509.982 488.552 509.982 472.89C509.982 457.228 507.712 442.78 503.186 430.017C498.646 417.268 491.736 407.117 482.442 399.593C473.133 392.069 461.498 388.3 447.521 388.3C433.544 388.3 421.979 392.069 412.842 399.593C403.691 407.117 396.852 417.225 392.327 429.903C387.801 442.58 385.531 456.914 385.531 472.89C385.531 488.866 387.801 502.771 392.327 515.521C396.852 528.27 403.691 538.421 412.842 545.945C421.979 553.468 433.544 557.238 447.521 557.238Z" fill="white"/>
<path d="M669.354 606.365L546.974 251.387H614.503L675.351 435.786C681.033 454.203 687.186 475.461 693.782 499.518C700.392 523.588 707.53 550.786 715.211 581.124H702.305C709.986 550.314 717.01 522.989 723.392 499.175C729.774 475.347 735.727 454.232 741.252 435.8L800.258 251.401H867.559L747.248 606.38H669.354V606.365Z" fill="white"/>
<path d="M969.238 605.864C943.269 605.864 920.954 600.41 902.28 589.503C883.62 578.596 869.244 563.234 859.193 543.403C849.128 523.587 844.088 500.23 844.088 473.347C844.088 446.464 849.042 423.492 858.95 403.519C868.872 383.546 882.921 367.913 901.138 356.62C919.341 345.327 940.742 339.688 965.326 339.688C981.002 339.688 995.936 342.229 1010.16 347.297C1024.36 352.365 1036.97 360.203 1047.95 370.811C1058.93 381.419 1067.55 394.896 1073.76 411.257C1079.98 427.618 1083.1 447.092 1083.1 469.678V488.58H872.442V447.791H1053.36L1025.25 459.77C1025.25 445.322 1023.02 432.615 1018.56 421.622C1014.11 410.643 1007.46 402.077 998.62 395.924C989.783 389.785 978.761 386.701 965.555 386.701C952.349 386.701 941.127 389.813 931.905 396.038C922.682 402.248 915.658 410.558 910.818 420.923C905.978 431.287 903.551 442.852 903.551 455.601V483.712C903.551 500.002 906.32 513.75 911.846 524.972C917.371 536.193 925.137 544.645 935.117 550.328C945.096 556.01 956.704 558.851 969.924 558.851C978.676 558.851 986.628 557.58 993.78 555.053C1000.92 552.512 1007.1 548.757 1012.33 543.76C1017.55 538.778 1021.46 532.667 1024.08 525.443L1079.16 536.736C1075 550.57 1067.93 562.663 1057.95 573.042C1047.96 583.407 1035.48 591.473 1020.51 597.241C1005.52 603.009 988.426 605.893 969.224 605.893L969.238 605.864Z" fill="white"/>
<path d="M1168.69 451.919V606.365H1108.77V339.446H1165.46L1166.39 407.818H1161.55C1168.77 385.032 1179.36 367.928 1193.36 356.535C1207.33 345.142 1224.85 339.432 1245.91 339.432C1263.58 339.432 1279.02 343.286 1292.24 350.982C1305.46 358.691 1315.71 369.927 1323 384.703C1330.3 399.48 1333.95 417.483 1333.95 438.698V606.337H1274.03V448.121C1274.03 430.518 1269.58 416.683 1260.67 406.618C1251.76 396.553 1239.47 391.528 1223.79 391.528C1213.19 391.528 1203.75 393.883 1195.44 398.595C1187.13 403.306 1180.61 410.188 1175.85 419.225C1171.08 428.262 1168.71 439.141 1168.71 451.876L1168.69 451.919Z" fill="white"/>
<path d="M1488.42 339.446V386.459H1342.06V339.446H1488.42ZM1378.71 283.938H1438.63V530.312C1438.63 539.678 1440.63 546.559 1444.63 550.942C1448.63 555.311 1455.15 557.51 1464.22 557.51C1466.99 557.51 1470.63 557.167 1475.17 556.482C1479.69 555.782 1483.35 555.14 1486.12 554.526L1495.57 600.854C1488.96 602.853 1482.2 604.266 1475.28 605.109C1468.36 605.951 1461.76 606.379 1455.46 606.379C1430.72 606.379 1411.75 600.24 1398.54 587.948C1385.32 575.655 1378.73 558.138 1378.73 535.395V283.938H1378.71Z" fill="white"/>
<path d="M1592.72 606.366C1575.05 606.366 1559.57 602.511 1546.28 594.816C1532.99 587.106 1522.69 575.842 1515.4 560.98C1508.1 546.132 1504.45 528.172 1504.45 507.099V339.461H1564.37V497.677C1564.37 515.28 1568.86 529.114 1577.86 539.179C1586.84 549.244 1599.17 554.27 1614.85 554.27C1625.46 554.27 1634.89 551.914 1643.2 547.203C1651.51 542.491 1657.99 535.567 1662.68 526.459C1667.36 517.336 1669.7 506.5 1669.7 493.922V339.475H1729.85V606.551H1672.93L1672.24 538.009H1676.85C1669.63 560.966 1658.95 578.098 1644.82 589.405C1630.68 600.712 1613.32 606.38 1592.74 606.38L1592.72 606.366Z" fill="white"/>
<path d="M1766.84 606.364V339.674H1824.92V386.002H1827.69C1832.3 371.097 1840.37 359.618 1851.89 351.538C1863.41 343.471 1876.54 339.445 1891.29 339.445C1894.68 339.445 1898.43 339.602 1902.58 339.902C1906.74 340.202 1910.27 340.587 1913.19 341.059V396.139C1910.74 395.368 1906.74 394.682 1901.21 394.068C1895.69 393.454 1890.24 393.14 1884.85 393.14C1873.79 393.14 1863.84 395.525 1855.01 400.279C1846.18 405.047 1839.25 411.615 1834.27 419.981C1829.27 428.361 1826.77 437.998 1826.77 448.906V606.35H1766.86L1766.84 606.364Z" fill="white"/>
<path d="M2037.96 606.365C2011.94 606.365 1989.59 600.897 1970.88 589.976C1952.18 579.04 1937.79 563.649 1927.71 543.79C1917.62 523.931 1912.58 500.531 1912.58 473.605C1912.58 446.679 1917.55 423.651 1927.47 403.649C1937.41 383.633 1951.48 367.985 1969.73 356.664C1987.96 345.357 2009.4 339.703 2034.03 339.703C2049.74 339.703 2064.7 342.244 2078.93 347.327C2093.17 352.409 2105.79 360.262 2116.79 370.884C2127.8 381.506 2136.42 395.011 2142.65 411.401C2148.89 427.791 2152 447.307 2152 469.936V488.867H1940.96V447.993H2122.2L2094.04 460C2094.04 445.537 2091.81 432.802 2087.34 421.78C2082.87 410.787 2076.22 402.193 2067.37 396.039C2058.52 389.886 2047.48 386.802 2034.23 386.802C2020.98 386.802 2009.76 389.915 2000.52 396.154C1991.29 402.378 1984.25 410.687 1979.39 421.095C1974.54 431.474 1972.11 443.067 1972.11 455.845V484.013C1972.11 500.331 1974.88 514.109 1980.42 525.344C1985.96 536.58 1993.74 545.046 2003.74 550.743C2013.74 556.439 2025.36 559.28 2038.6 559.28C2047.38 559.28 2055.33 558.01 2062.5 555.469C2069.65 552.927 2075.85 549.158 2081.09 544.147C2086.33 539.15 2090.25 533.025 2092.87 525.787L2148.05 537.094C2143.89 550.943 2136.81 563.064 2126.8 573.457C2116.79 583.837 2104.29 591.932 2089.28 597.699C2074.26 603.481 2057.15 606.365 2037.9 606.365H2037.96Z" fill="white"/>
<path d="M2645.35 594.786C2620.31 594.786 2598.57 589.218 2580.14 578.082C2561.71 566.946 2547.44 551.427 2537.39 531.526C2527.33 511.624 2522.29 488.467 2522.29 462.04C2522.29 435.614 2527.31 411.915 2537.39 391.87C2547.44 371.811 2561.71 356.264 2580.14 345.199C2598.57 334.134 2620.31 328.609 2645.35 328.609C2670.39 328.609 2692.37 334.134 2710.81 345.199C2729.24 356.264 2743.49 371.811 2753.57 391.87C2763.62 411.915 2768.66 435.314 2768.66 462.04C2768.66 488.767 2763.62 511.638 2753.57 531.526C2743.51 551.427 2729.26 566.946 2710.81 578.082C2692.37 589.218 2670.55 594.786 2645.35 594.786ZM2645.35 546.159C2659.33 546.159 2670.97 542.39 2680.27 534.866C2689.57 527.343 2696.48 517.192 2701.02 504.443C2705.54 491.693 2707.81 477.474 2707.81 461.812C2707.81 446.15 2705.54 431.702 2701.02 418.939C2696.48 406.19 2689.57 396.039 2680.27 388.515C2670.97 380.991 2659.33 377.222 2645.35 377.222C2631.38 377.222 2619.81 380.991 2610.67 388.515C2601.52 396.039 2594.68 406.147 2590.16 418.825C2585.63 431.502 2583.36 445.836 2583.36 461.812C2583.36 477.788 2585.63 491.693 2590.16 504.443C2594.68 517.192 2601.52 527.343 2610.67 534.866C2619.81 542.39 2631.38 546.159 2645.35 546.159Z" fill="white"/>
<path d="M2295 594.787V251.387H2514.86V303.24H2356.53V406.261H2499.43V457.43H2356.53V594.787H2295Z" fill="white"/>
<path d="M2793.2 594.787V327.797H2851.28V375.396H2854.05C2858.66 360.162 2866.73 348.413 2878.25 340.161C2889.77 331.923 2902.91 327.797 2917.65 327.797C2921.04 327.797 2924.79 327.954 2928.95 328.268C2933.1 328.582 2936.63 328.982 2939.55 329.453V385.775C2937.1 384.99 2933.1 384.276 2927.58 383.648C2922.05 383.02 2916.6 382.705 2911.22 382.705C2900.15 382.705 2890.2 385.147 2881.38 390.015C2872.54 394.884 2865.62 401.608 2860.63 410.16C2855.64 418.726 2853.14 428.577 2853.14 439.727V594.787H2793.22H2793.2Z" fill="white"/>
<path d="M3041.05 594.673C3023.37 594.673 3007.9 590.818 2994.61 583.123C2981.32 575.428 2971.02 564.149 2963.73 549.287C2956.43 534.439 2952.78 516.479 2952.78 495.421V327.797H3012.7V485.984C3012.7 503.587 3017.19 517.421 3026.19 527.472C3035.17 537.537 3047.5 542.563 3063.18 542.563C3073.79 542.563 3083.22 540.207 3091.53 535.496C3099.83 530.785 3106.32 523.86 3111.01 514.752C3115.69 505.629 3118.03 494.793 3118.03 482.215V327.797H3178.18V594.673H3121.26L3120.57 526.302H3125.18C3117.96 549.244 3107.28 566.377 3093.15 577.698C3079.01 589.02 3061.65 594.673 3041.06 594.673H3041.05Z" fill="white"/>
<path d="M3215.17 594.787V327.797H3271.41L3273.7 395.255H3269.32C3273.01 379.593 3278.73 366.815 3286.48 356.95C3294.23 347.085 3303.31 339.761 3313.68 334.978C3324.06 330.195 3334.92 327.811 3346.29 327.811C3364.88 327.811 3379.9 333.765 3391.35 345.671C3402.78 357.578 3410.89 375.124 3415.66 398.324H3408.52C3412.06 382.663 3418.09 369.614 3426.61 359.192C3435.15 348.784 3445.28 340.946 3457.03 335.692C3468.8 330.452 3481.35 327.825 3494.72 327.825C3510.24 327.825 3524.15 331.266 3536.44 338.162C3548.73 345.058 3558.48 355.123 3565.71 368.372C3572.93 381.606 3576.54 398.024 3576.54 417.612V594.816H3516.62V427.006C3516.62 410.717 3512.24 398.81 3503.49 391.286C3494.74 383.762 3484.2 380.007 3471.91 380.007C3462.39 380.007 3454.09 382.12 3447.03 386.346C3439.96 390.572 3434.53 396.411 3430.78 403.849C3427.01 411.302 3425.14 419.954 3425.14 429.819V594.802H3366.6V424.165C3366.6 410.845 3362.54 400.152 3354.38 392.085C3346.25 384.019 3335.79 379.979 3323.05 379.979C3314.29 379.979 3306.26 382.02 3298.96 386.089C3291.66 390.158 3285.87 396.197 3281.56 404.192C3277.25 412.187 3275.1 422.052 3275.1 433.802V594.802H3215.18L3215.17 594.787Z" fill="white"/>
<path d="M3875.13 327.797V447.551H3848.82V376.752H3848.15L3820.38 447.551H3798.35L3770.51 376.752H3769.91V447.551H3743.58V327.797H3777.35L3808.93 406.519H3809.6L3841.36 327.797H3875.13Z" fill="white"/>
<path d="M3725.74 327.797V352.91H3690.82V447.551H3664.13V352.91H3629.1V327.797H3725.74Z" fill="white"/>
</svg>
